P3
# imagem criada por mcg/leim/isel
5 3
255
0 0 0 0 0 0 0 0 0 0 0 0 0 0 0 
0 0 0 255 0 0 0 255 0 0 0 255 0 0 0 
0 0 0 0 0 0 0 0 0 0 0 0 0 0 0 
